<mxfile host="65bd71144e">
    <diagram id="1r8ZXVjao1X88trFAKBQ" name="Page-1">
        <mxGraphModel dx="1563" dy="1671" grid="1" gridSize="10" guides="1" tooltips="1" connect="1" arrows="1" fold="1" page="1" pageScale="1" pageWidth="850" pageHeight="1100" background="none" math="0" shadow="0">
            <root>
                <mxCell id="0"/>
                <mxCell id="1" parent="0"/>
                <mxCell id="108" value="Delete User" style="shape=table;childLayout=tableLayout;startSize=40;collapsible=0;recursiveResize=0;expand=0;fillColor=#b1ddf0;strokeColor=#000000;fontColor=#000000;" parent="1" vertex="1">
                    <mxGeometry x="-60" y="-10" width="1150" height="760" as="geometry"/>
                </mxCell>
                <mxCell id="109" value="" style="shape=tableRow;horizontal=0;swimlaneHead=0;swimlaneBody=0;top=0;left=0;bottom=0;right=0;dropTarget=0;fontStyle=0;fillColor=#b0e3e6;points=[[0,0.5],[1,0.5]];portConstraint=eastwest;startSize=40;collapsible=0;recursiveResize=0;expand=0;strokeColor=#0e8088;fontColor=#000000;" parent="108" vertex="1">
                    <mxGeometry y="40" width="1150" height="144" as="geometry"/>
                </mxCell>
                <mxCell id="110" value="Controller" style="swimlane;swimlaneHead=0;swimlaneBody=0;fontStyle=0;connectable=0;fillColor=#b0e3e6;startSize=30;collapsible=0;recursiveResize=0;expand=0;strokeColor=#000000;fontColor=#000000;swimlaneFillColor=#E6E6E6;" parent="109" vertex="1">
                    <mxGeometry x="40" width="279" height="144" as="geometry">
                        <mxRectangle width="279" height="144" as="alternateBounds"/>
                    </mxGeometry>
                </mxCell>
                <mxCell id="111" value="Service" style="swimlane;swimlaneHead=0;swimlaneBody=0;fontStyle=0;connectable=0;fillColor=#b0e3e6;startSize=30;collapsible=0;recursiveResize=0;expand=0;strokeColor=#000000;fontColor=#000000;swimlaneFillColor=#E6E6E6;" parent="109" vertex="1">
                    <mxGeometry x="319" width="276" height="144" as="geometry">
                        <mxRectangle width="276" height="144" as="alternateBounds"/>
                    </mxGeometry>
                </mxCell>
                <mxCell id="112" value="Repository" style="swimlane;swimlaneHead=0;swimlaneBody=0;fontStyle=0;connectable=0;fillColor=#b0e3e6;startSize=30;collapsible=0;recursiveResize=0;expand=0;strokeColor=#000000;fontColor=#000000;swimlaneFillColor=#E6E6E6;" parent="109" vertex="1">
                    <mxGeometry x="595" width="279" height="144" as="geometry">
                        <mxRectangle width="279" height="144" as="alternateBounds"/>
                    </mxGeometry>
                </mxCell>
                <mxCell id="113" value="Entity" style="swimlane;swimlaneHead=0;swimlaneBody=0;fontStyle=0;connectable=0;fillColor=#b0e3e6;startSize=30;collapsible=0;recursiveResize=0;expand=0;strokeColor=#000000;fontColor=#000000;swimlaneFillColor=#E6E6E6;" parent="109" vertex="1">
                    <mxGeometry x="874" width="276" height="144" as="geometry">
                        <mxRectangle width="276" height="144" as="alternateBounds"/>
                    </mxGeometry>
                </mxCell>
                <mxCell id="156" value="Bedrijf" style="swimlane;childLayout=stackLayout;horizontal=1;startSize=30;horizontalStack=0;rounded=1;fontSize=14;fontStyle=0;strokeWidth=2;resizeParent=0;resizeLast=1;shadow=0;dashed=0;align=center;fillColor=#99FFCC;strokeColor=#000000;fontColor=#000000;" parent="113" vertex="1">
                    <mxGeometry x="66" y="40" width="160" height="90" as="geometry"/>
                </mxCell>
                <mxCell id="114" value="" style="shape=tableRow;horizontal=0;swimlaneHead=0;swimlaneBody=0;top=0;left=0;bottom=0;right=0;dropTarget=0;fontStyle=0;fillColor=#b0e3e6;points=[[0,0.5],[1,0.5]];portConstraint=eastwest;startSize=40;collapsible=0;recursiveResize=0;expand=0;strokeColor=#000000;" parent="108" vertex="1">
                    <mxGeometry y="184" width="1150" height="144" as="geometry"/>
                </mxCell>
                <mxCell id="115" value="" style="swimlane;swimlaneHead=0;swimlaneBody=0;fontStyle=0;connectable=0;fillColor=none;startSize=0;collapsible=0;recursiveResize=0;expand=0;swimlaneFillColor=#E6E6E6;strokeColor=#000000;" parent="114" vertex="1">
                    <mxGeometry x="40" width="279" height="144" as="geometry">
                        <mxRectangle width="279" height="144" as="alternateBounds"/>
                    </mxGeometry>
                </mxCell>
                <mxCell id="144" value="Delete User" style="whiteSpace=wrap;html=1;fillColor=#999999;fillStyle=auto;fontColor=#000000;" parent="115" vertex="1">
                    <mxGeometry x="50" y="30" width="80" height="40" as="geometry"/>
                </mxCell>
                <mxCell id="116" value="" style="swimlane;swimlaneHead=0;swimlaneBody=0;fontStyle=0;connectable=0;fillColor=none;startSize=0;collapsible=0;recursiveResize=0;expand=0;swimlaneFillColor=#E6E6E6;strokeColor=#000000;fontColor=#000000;" parent="114" vertex="1">
                    <mxGeometry x="319" width="276" height="144" as="geometry">
                        <mxRectangle width="276" height="144" as="alternateBounds"/>
                    </mxGeometry>
                </mxCell>
                <mxCell id="154" value="Delete User" style="whiteSpace=wrap;html=1;fillColor=#999999;fontColor=#000000;" parent="116" vertex="1">
                    <mxGeometry x="41" y="30" width="79" height="40" as="geometry"/>
                </mxCell>
                <mxCell id="117" value="" style="swimlane;swimlaneHead=0;swimlaneBody=0;fontStyle=0;connectable=0;fillColor=none;startSize=0;collapsible=0;recursiveResize=0;expand=0;swimlaneFillColor=#E6E6E6;strokeColor=#000000;" parent="114" vertex="1">
                    <mxGeometry x="595" width="279" height="144" as="geometry">
                        <mxRectangle width="279" height="144" as="alternateBounds"/>
                    </mxGeometry>
                </mxCell>
                <mxCell id="166" value="Delete User" style="whiteSpace=wrap;html=1;fillColor=#999999;fontColor=#000000;" parent="117" vertex="1">
                    <mxGeometry x="85" y="30" width="80" height="40" as="geometry"/>
                </mxCell>
                <mxCell id="118" value="" style="swimlane;swimlaneHead=0;swimlaneBody=0;fontStyle=0;connectable=0;fillColor=none;startSize=0;collapsible=0;recursiveResize=0;expand=0;swimlaneFillColor=#E6E6E6;strokeColor=#000000;" parent="114" vertex="1">
                    <mxGeometry x="874" width="276" height="144" as="geometry">
                        <mxRectangle width="276" height="144" as="alternateBounds"/>
                    </mxGeometry>
                </mxCell>
                <mxCell id="158" value="User" style="swimlane;childLayout=stackLayout;horizontal=1;startSize=30;horizontalStack=0;rounded=1;fontSize=14;fontStyle=0;strokeWidth=2;resizeParent=0;resizeLast=1;shadow=0;dashed=0;align=center;fillColor=#99FFCC;strokeColor=#000000;fontColor=#000000;" parent="118" vertex="1">
                    <mxGeometry x="58" y="27" width="160" height="90" as="geometry"/>
                </mxCell>
                <mxCell id="155" style="edgeStyle=none;html=1;entryX=0;entryY=0.5;entryDx=0;entryDy=0;strokeColor=#000000;" parent="114" source="144" target="154" edge="1">
                    <mxGeometry relative="1" as="geometry"/>
                </mxCell>
                <mxCell id="207" style="edgeStyle=none;html=1;strokeColor=#000000;" edge="1" parent="114" source="154" target="166">
                    <mxGeometry relative="1" as="geometry"/>
                </mxCell>
                <mxCell id="209" style="edgeStyle=none;html=1;exitX=1;exitY=0.5;exitDx=0;exitDy=0;entryX=0;entryY=0.25;entryDx=0;entryDy=0;strokeColor=#000000;fontColor=#FFFFFF;" edge="1" parent="114" source="166" target="158">
                    <mxGeometry relative="1" as="geometry"/>
                </mxCell>
                <mxCell id="119" value="" style="shape=tableRow;horizontal=0;swimlaneHead=0;swimlaneBody=0;top=0;left=0;bottom=0;right=0;dropTarget=0;fontStyle=0;fillColor=#b0e3e6;points=[[0,0.5],[1,0.5]];portConstraint=eastwest;startSize=40;collapsible=0;recursiveResize=0;expand=0;strokeColor=#0e8088;" parent="108" vertex="1">
                    <mxGeometry y="328" width="1150" height="144" as="geometry"/>
                </mxCell>
                <mxCell id="120" value="" style="swimlane;swimlaneHead=0;swimlaneBody=0;fontStyle=0;connectable=0;fillColor=none;startSize=0;collapsible=0;recursiveResize=0;expand=0;swimlaneFillColor=#E6E6E6;strokeColor=#000000;" parent="119" vertex="1">
                    <mxGeometry x="40" width="279" height="144" as="geometry">
                        <mxRectangle width="279" height="144" as="alternateBounds"/>
                    </mxGeometry>
                </mxCell>
                <mxCell id="121" value="" style="swimlane;swimlaneHead=0;swimlaneBody=0;fontStyle=0;connectable=0;fillColor=none;startSize=0;collapsible=0;recursiveResize=0;expand=0;swimlaneFillColor=#E6E6E6;strokeColor=#000000;" parent="119" vertex="1">
                    <mxGeometry x="319" width="276" height="144" as="geometry">
                        <mxRectangle width="276" height="144" as="alternateBounds"/>
                    </mxGeometry>
                </mxCell>
                <mxCell id="122" value="" style="swimlane;swimlaneHead=0;swimlaneBody=0;fontStyle=0;connectable=0;fillColor=none;startSize=0;collapsible=0;recursiveResize=0;expand=0;fontColor=#000000;swimlaneFillColor=#E6E6E6;strokeColor=#000000;" parent="119" vertex="1">
                    <mxGeometry x="595" width="279" height="144" as="geometry">
                        <mxRectangle width="279" height="144" as="alternateBounds"/>
                    </mxGeometry>
                </mxCell>
                <mxCell id="123" value="" style="swimlane;swimlaneHead=0;swimlaneBody=0;fontStyle=0;connectable=0;fillColor=none;startSize=0;collapsible=0;recursiveResize=0;expand=0;swimlaneFillColor=#E6E6E6;strokeColor=#000000;" parent="119" vertex="1">
                    <mxGeometry x="874" width="276" height="144" as="geometry">
                        <mxRectangle width="276" height="144" as="alternateBounds"/>
                    </mxGeometry>
                </mxCell>
                <mxCell id="160" value="Profile" style="swimlane;childLayout=stackLayout;horizontal=1;startSize=30;horizontalStack=0;rounded=1;fontSize=14;fontStyle=0;strokeWidth=2;resizeParent=0;resizeLast=1;shadow=0;dashed=0;align=center;fillColor=#99FFCC;strokeColor=#000000;fontColor=#000000;" parent="123" vertex="1">
                    <mxGeometry x="58" y="27" width="160" height="90" as="geometry"/>
                </mxCell>
                <mxCell id="124" value="" style="shape=tableRow;horizontal=0;swimlaneHead=0;swimlaneBody=0;top=0;left=0;bottom=0;right=0;dropTarget=0;fontStyle=0;fillColor=#b0e3e6;points=[[0,0.5],[1,0.5]];portConstraint=eastwest;startSize=40;collapsible=0;recursiveResize=0;expand=0;strokeColor=#0e8088;" parent="108" vertex="1">
                    <mxGeometry y="472" width="1150" height="144" as="geometry"/>
                </mxCell>
                <mxCell id="125" value="" style="swimlane;swimlaneHead=0;swimlaneBody=0;fontStyle=0;connectable=0;fillColor=none;startSize=0;collapsible=0;recursiveResize=0;expand=0;swimlaneFillColor=#E6E6E6;strokeColor=#000000;" parent="124" vertex="1">
                    <mxGeometry x="40" width="279" height="144" as="geometry">
                        <mxRectangle width="279" height="144" as="alternateBounds"/>
                    </mxGeometry>
                </mxCell>
                <mxCell id="126" value="" style="swimlane;swimlaneHead=0;swimlaneBody=0;fontStyle=0;connectable=0;fillColor=none;startSize=0;collapsible=0;recursiveResize=0;expand=0;swimlaneFillColor=#E6E6E6;strokeColor=#000000;" parent="124" vertex="1">
                    <mxGeometry x="319" width="276" height="144" as="geometry">
                        <mxRectangle width="276" height="144" as="alternateBounds"/>
                    </mxGeometry>
                </mxCell>
                <mxCell id="127" value="" style="swimlane;swimlaneHead=0;swimlaneBody=0;fontStyle=0;connectable=0;fillColor=none;startSize=0;collapsible=0;recursiveResize=0;expand=0;swimlaneFillColor=#E6E6E6;strokeColor=#000000;" parent="124" vertex="1">
                    <mxGeometry x="595" width="279" height="144" as="geometry">
                        <mxRectangle width="279" height="144" as="alternateBounds"/>
                    </mxGeometry>
                </mxCell>
                <mxCell id="128" value="" style="swimlane;swimlaneHead=0;swimlaneBody=0;fontStyle=0;connectable=0;fillColor=none;startSize=0;collapsible=0;recursiveResize=0;expand=0;swimlaneFillColor=#E6E6E6;" parent="124" vertex="1">
                    <mxGeometry x="874" width="276" height="144" as="geometry">
                        <mxRectangle width="276" height="144" as="alternateBounds"/>
                    </mxGeometry>
                </mxCell>
                <mxCell id="162" value="Vacancies" style="swimlane;childLayout=stackLayout;horizontal=1;startSize=30;horizontalStack=0;rounded=1;fontSize=14;fontStyle=0;strokeWidth=2;resizeParent=0;resizeLast=1;shadow=0;dashed=0;align=center;fillColor=#99FFCC;strokeColor=#000000;fontColor=#000000;" parent="128" vertex="1">
                    <mxGeometry x="58" y="27" width="160" height="90" as="geometry"/>
                </mxCell>
                <mxCell id="129" value="" style="shape=tableRow;horizontal=0;swimlaneHead=0;swimlaneBody=0;top=0;left=0;bottom=0;right=0;dropTarget=0;fontStyle=0;fillColor=#b0e3e6;points=[[0,0.5],[1,0.5]];portConstraint=eastwest;startSize=40;collapsible=0;recursiveResize=0;expand=0;strokeColor=#0e8088;" parent="108" vertex="1">
                    <mxGeometry y="616" width="1150" height="144" as="geometry"/>
                </mxCell>
                <mxCell id="130" value="" style="swimlane;swimlaneHead=0;swimlaneBody=0;fontStyle=0;connectable=0;fillColor=none;startSize=0;collapsible=0;recursiveResize=0;expand=0;swimlaneFillColor=#E6E6E6;strokeColor=#000000;" parent="129" vertex="1">
                    <mxGeometry x="40" width="279" height="144" as="geometry">
                        <mxRectangle width="279" height="144" as="alternateBounds"/>
                    </mxGeometry>
                </mxCell>
                <mxCell id="131" value="" style="swimlane;swimlaneHead=0;swimlaneBody=0;fontStyle=0;connectable=0;fillColor=none;startSize=0;collapsible=0;recursiveResize=0;expand=0;swimlaneFillColor=#E6E6E6;strokeColor=#000000;" parent="129" vertex="1">
                    <mxGeometry x="319" width="276" height="144" as="geometry">
                        <mxRectangle width="276" height="144" as="alternateBounds"/>
                    </mxGeometry>
                </mxCell>
                <mxCell id="132" value="" style="swimlane;swimlaneHead=0;swimlaneBody=0;fontStyle=0;connectable=0;fillColor=none;startSize=0;collapsible=0;recursiveResize=0;expand=0;swimlaneFillColor=#E6E6E6;strokeColor=#000000;" parent="129" vertex="1">
                    <mxGeometry x="595" width="279" height="144" as="geometry">
                        <mxRectangle width="279" height="144" as="alternateBounds"/>
                    </mxGeometry>
                </mxCell>
                <mxCell id="133" value="" style="swimlane;swimlaneHead=0;swimlaneBody=0;fontStyle=0;connectable=0;fillColor=none;startSize=0;collapsible=0;recursiveResize=0;expand=0;swimlaneFillColor=#E6E6E6;strokeColor=#000000;" parent="129" vertex="1">
                    <mxGeometry x="874" width="276" height="144" as="geometry">
                        <mxRectangle width="276" height="144" as="alternateBounds"/>
                    </mxGeometry>
                </mxCell>
                <mxCell id="164" value="Activities" style="swimlane;childLayout=stackLayout;horizontal=1;startSize=30;horizontalStack=0;rounded=1;fontSize=14;fontStyle=0;strokeWidth=2;resizeParent=0;resizeLast=1;shadow=0;dashed=0;align=center;fillColor=#99FFCC;strokeColor=#000000;fontColor=#000000;" parent="133" vertex="1">
                    <mxGeometry x="58" y="34" width="160" height="90" as="geometry"/>
                </mxCell>
                <mxCell id="138" value="&lt;font color=&quot;#000000&quot;&gt;Company&lt;/font&gt;" style="text;strokeColor=none;align=center;fillColor=none;html=1;verticalAlign=middle;whiteSpace=wrap;rounded=0;rotation=-90;" parent="1" vertex="1">
                    <mxGeometry x="-70" y="80" width="60" height="30" as="geometry"/>
                </mxCell>
                <mxCell id="139" value="&lt;font color=&quot;#000000&quot;&gt;User&lt;/font&gt;" style="text;strokeColor=none;align=center;fillColor=none;html=1;verticalAlign=middle;whiteSpace=wrap;rounded=0;rotation=-90;" parent="1" vertex="1">
                    <mxGeometry x="-70" y="230" width="60" height="30" as="geometry"/>
                </mxCell>
                <mxCell id="140" value="&lt;font color=&quot;#000000&quot;&gt;Profile&lt;/font&gt;" style="text;strokeColor=none;align=center;fillColor=none;html=1;verticalAlign=middle;whiteSpace=wrap;rounded=0;rotation=-90;" parent="1" vertex="1">
                    <mxGeometry x="-70" y="380" width="60" height="30" as="geometry"/>
                </mxCell>
                <mxCell id="141" value="&lt;font color=&quot;#000000&quot;&gt;Vacancies&lt;/font&gt;" style="text;strokeColor=none;align=center;fillColor=none;html=1;verticalAlign=middle;whiteSpace=wrap;rounded=0;rotation=-90;" parent="1" vertex="1">
                    <mxGeometry x="-70" y="520" width="60" height="30" as="geometry"/>
                </mxCell>
                <mxCell id="142" value="&lt;font color=&quot;#000000&quot;&gt;Activities&lt;/font&gt;" style="text;strokeColor=none;align=center;fillColor=none;html=1;verticalAlign=middle;whiteSpace=wrap;rounded=0;rotation=-90;" parent="1" vertex="1">
                    <mxGeometry x="-70" y="670" width="60" height="30" as="geometry"/>
                </mxCell>
                <mxCell id="145" style="edgeStyle=none;html=1;" parent="1" source="143" target="144" edge="1">
                    <mxGeometry relative="1" as="geometry"/>
                </mxCell>
                <mxCell id="143" value="&lt;font color=&quot;#ffffff&quot;&gt;Actor&lt;/font&gt;" style="shape=umlActor;verticalLabelPosition=bottom;verticalAlign=top;html=1;outlineConnect=0;strokeColor=#FFFFFF;fillColor=none;" parent="1" vertex="1">
                    <mxGeometry x="-170" y="194" width="30" height="60" as="geometry"/>
                </mxCell>
            </root>
        </mxGraphModel>
    </diagram>
</mxfile>